<svg id="Layer_1" data-name="Layer 1" xmlns="http://www.w3.org/2000/svg" width="360" height="120" viewBox="0 0 360 120">
  <defs>
    <style>
      .cls-1 {
        fill: none;
      }

      .cls-2 {
        fill: #f6f792;
      }
    </style>
  </defs>
  <title>logo</title>
  <g>
    <rect class="cls-1" width="360" height="120"/>
    <g>
      <path class="cls-2" d="M50.93,59.47H47.29L42,48l-0.59,0H40.61l-1,0h-1q-1.13,0-2.43,0l0.07,11.43-3.06,0,0-24.46a4.84,4.84,0,0,0-.19-1.54,3.81,3.81,0,0,0-.44-0.91l-0.34-.36a3,3,0,0,0-.48-0.4,4.35,4.35,0,0,0-.74-0.4A7.42,7.42,0,0,0,30,31.1v-1q3.52,0,6.13,0t4.58,0a28.1,28.1,0,0,1,3.46.34,10.56,10.56,0,0,1,2.76.85,6.16,6.16,0,0,1,1.62,1.12,6.5,6.5,0,0,1,1.24,1.67,6.69,6.69,0,0,1,.85,2.16,13,13,0,0,1,.28,2.83,12.44,12.44,0,0,1-.33,3,7.11,7.11,0,0,1-1,2.34,7,7,0,0,1-1.79,1.78,11.25,11.25,0,0,1-2.63,1.31ZM42.21,45.6a5,5,0,0,0,2.19-.49,5.51,5.51,0,0,0,1.8-1.38,6.67,6.67,0,0,0,1.23-2.16,8.38,8.38,0,0,0,.45-2.83A7.46,7.46,0,0,0,47.45,36a5.83,5.83,0,0,0-1.23-2,5,5,0,0,0-1.82-1.21,6,6,0,0,0-2.2-.41h-5.9V45.6h5.9Z"/>
      <path class="cls-2" d="M78.91,30.14H80l0.49,0L80.39,48.79a12.75,12.75,0,0,1-.76,4.44,10.45,10.45,0,0,1-2.14,3.55,10.09,10.09,0,0,1-3.33,2.35,10.46,10.46,0,0,1-4.3.86,11.16,11.16,0,0,1-4.26-.79A9.88,9.88,0,0,1,62.25,57,10.57,10.57,0,0,1,60,53.61a11.6,11.6,0,0,1-.86-4.28V35.23a4.38,4.38,0,0,0-.22-1.52,3.79,3.79,0,0,0-.47-0.9l-0.35-.41a2.59,2.59,0,0,0-.5-0.42,5.56,5.56,0,0,0-.75-0.41,6.38,6.38,0,0,0-1.12-.37v-1h6.7l0.11,18.31a12.32,12.32,0,0,0,.53,3.38,8.25,8.25,0,0,0,1.41,2.71,6.47,6.47,0,0,0,2.25,1.8,7,7,0,0,0,3.1.65A7.38,7.38,0,0,0,73,56.4a7,7,0,0,0,2.38-1.79,7.92,7.92,0,0,0,1.51-2.69,10.34,10.34,0,0,0,.52-3.32V30.12Z"/>
      <path class="cls-2" d="M99.18,33.77q-1.23-.53-2.6-1a14.44,14.44,0,0,0-2.73-.7,8.59,8.59,0,0,0-2.68,0,5.2,5.2,0,0,0-2.43,1.1,3.77,3.77,0,0,0-1,1.39,4.46,4.46,0,0,0-.33,1.73,4.32,4.32,0,0,0,.48,2.11,8.14,8.14,0,0,0,1.23,1.66,19.51,19.51,0,0,0,2.43,1.61Q92.78,42.36,94,43t2.43,1.42a13.94,13.94,0,0,1,2.19,1.73,7.94,7.94,0,0,1,1.46,2.09,8.75,8.75,0,0,1,.76,2.39,8.44,8.44,0,0,1,0,2.51,8.17,8.17,0,0,1-.71,2.42,6.09,6.09,0,0,1-1.66,2.24,9,9,0,0,1-2.33,1.43,11.75,11.75,0,0,1-2.64.76,16.22,16.22,0,0,1-2.63.23A20.28,20.28,0,0,1,87.56,60q-1.63-.28-3.22-0.64v-3a24.57,24.57,0,0,0,3.55,1.37,12.83,12.83,0,0,0,3.67.53A8,8,0,0,0,94,57.94a4.87,4.87,0,0,0,1.82-1,5.47,5.47,0,0,0,1.54-4.13,5.4,5.4,0,0,0-1.79-4,24,24,0,0,0-2.41-1.54l-2.47-1.38q-1.23-.68-2.36-1.44a12,12,0,0,1-2.07-1.74,7.47,7.47,0,0,1-2.13-5.3A6.43,6.43,0,0,1,86.47,32a7.24,7.24,0,0,1,1.85-1.12,10.43,10.43,0,0,1,2.11-.62A14,14,0,0,1,92.7,30,21.68,21.68,0,0,1,95,30.1q1.12,0.1,2.2.28t2,0.4v3Z"/>
      <path class="cls-2" d="M119.88,33.77q-1.23-.53-2.6-1a14.44,14.44,0,0,0-2.73-.7,8.59,8.59,0,0,0-2.68,0,5.2,5.2,0,0,0-2.43,1.1,3.77,3.77,0,0,0-1,1.39,4.46,4.46,0,0,0-.33,1.73,4.32,4.32,0,0,0,.48,2.11,8.14,8.14,0,0,0,1.23,1.66,19.51,19.51,0,0,0,2.43,1.61q1.25,0.7,2.51,1.37t2.43,1.42a13.94,13.94,0,0,1,2.19,1.73,7.94,7.94,0,0,1,1.46,2.09,8.75,8.75,0,0,1,.76,2.39,8.44,8.44,0,0,1,0,2.51,8.17,8.17,0,0,1-.71,2.42,6.09,6.09,0,0,1-1.66,2.24,9,9,0,0,1-2.33,1.43,11.75,11.75,0,0,1-2.64.76,16.22,16.22,0,0,1-2.63.23,20.28,20.28,0,0,1-3.38-.28q-1.63-.28-3.22-0.64v-3a24.57,24.57,0,0,0,3.55,1.37,12.83,12.83,0,0,0,3.67.53,8,8,0,0,0,2.41-.34,4.87,4.87,0,0,0,1.82-1A5.47,5.47,0,0,0,118,52.8a5.4,5.4,0,0,0-1.79-4,24,24,0,0,0-2.41-1.54l-2.47-1.38q-1.23-.68-2.36-1.44a12,12,0,0,1-2.07-1.74,7.47,7.47,0,0,1-2.13-5.3A6.43,6.43,0,0,1,107.17,32,7.24,7.24,0,0,1,109,30.88a10.43,10.43,0,0,1,2.11-.62A14,14,0,0,1,113.4,30a21.68,21.68,0,0,1,2.29.07q1.12,0.1,2.2.28t2,0.4v3Z"/>
      <path class="cls-2" d="M145.14,57.41v2.76H127.59V34.75a6.24,6.24,0,0,0-.27-1.44,2.53,2.53,0,0,0-.66-1,4.73,4.73,0,0,0-.91-0.71,5.35,5.35,0,0,0-1.57-.61l0-.94h21v3H130.79V43.59h12.78v2.78H130.79v11h14.34Z"/>
      <path class="cls-2" d="M167,57.29v2.9H151.56v-25a5,5,0,0,0-.2-1.6,3.07,3.07,0,0,0-.48-0.92l-0.33-.36a2.46,2.46,0,0,0-.48-0.4,4.82,4.82,0,0,0-.75-0.4,7.08,7.08,0,0,0-1.15-.36v-1l6.72-.07V57.29H167Z"/>
      <path class="cls-2" d="M211.64,30.1L206,60h-2.84L196.7,33.94,190,60.1,186.45,60q-0.89-5.59-1.77-10.63-0.36-2.14-.76-4.37t-0.79-4.28q-0.4-2.05-.77-3.82t-0.69-3a5,5,0,0,0-.25-0.61,2.46,2.46,0,0,0-.25-0.42A5.13,5.13,0,0,0,180,32a9.16,9.16,0,0,0-2.19-.8V30.1h6.63l4.36,24,6.24-24h3.29L204.58,53l4.22-22.9h2.84Z"/>
      <path class="cls-2" d="M241.12,60.17H237.9L234,50.76H221.67l-3.9,9.41h-3.25L225.3,33.91q0.07-.31.11-0.55a2.25,2.25,0,0,0,0-.41,1.37,1.37,0,0,0-.86-1.22,3,3,0,0,0-.56-0.31l-0.49-.19A2.21,2.21,0,0,0,223,31.1v-1h5.7ZM232.81,48l-5-12-5,12h10Z"/>
      <path class="cls-2" d="M261.32,33h-8.19V60h-3.34V33h-8v-2.9h19.52V33Z"/>
      <path class="cls-2" d="M278.89,33.77q-1.23-.53-2.6-1a14.44,14.44,0,0,0-2.73-.7,8.59,8.59,0,0,0-2.68,0,5.2,5.2,0,0,0-2.43,1.1,3.77,3.77,0,0,0-1,1.39,4.46,4.46,0,0,0-.33,1.73,4.32,4.32,0,0,0,.48,2.11,8.14,8.14,0,0,0,1.23,1.66,19.51,19.51,0,0,0,2.43,1.61q1.25,0.7,2.51,1.37t2.43,1.42a13.94,13.94,0,0,1,2.19,1.73,7.94,7.94,0,0,1,1.46,2.09,8.75,8.75,0,0,1,.76,2.39,8.44,8.44,0,0,1,0,2.51,8.17,8.17,0,0,1-.71,2.42,6.09,6.09,0,0,1-1.66,2.24,9,9,0,0,1-2.33,1.43,11.75,11.75,0,0,1-2.64.76,16.22,16.22,0,0,1-2.63.23,20.28,20.28,0,0,1-3.38-.28q-1.63-.28-3.22-0.64v-3a24.57,24.57,0,0,0,3.55,1.37,12.83,12.83,0,0,0,3.67.53,8,8,0,0,0,2.41-.34,4.87,4.87,0,0,0,1.82-1A5.47,5.47,0,0,0,277,52.8a5.4,5.4,0,0,0-1.79-4,24,24,0,0,0-2.41-1.54l-2.47-1.38q-1.23-.68-2.36-1.44a12,12,0,0,1-2.07-1.74,7.47,7.47,0,0,1-2.13-5.3A6.43,6.43,0,0,1,266.18,32,7.24,7.24,0,0,1,268,30.88a10.43,10.43,0,0,1,2.11-.62,14,14,0,0,1,2.27-.23,21.68,21.68,0,0,1,2.29.07q1.12,0.1,2.2.28t2,0.4v3Z"/>
      <path class="cls-2" d="M306.28,60.17h-4.63L289.83,45.87V60.17h-3.34v-25a4.88,4.88,0,0,0-.2-1.6,4,4,0,0,0-.45-0.92l-0.35-.4a3.08,3.08,0,0,0-.47-0.4,3.62,3.62,0,0,0-.71-0.37,8.37,8.37,0,0,0-1.12-.35V30h6.65V44.14l13.28-14H306L292.89,44Z"/>
      <path class="cls-2" d="M318.18,44.88l-2.42-4.38L314,37.38l-1.16-2.08L312.14,34q-0.3-.5-0.48-0.78l-0.34-.54a3.1,3.1,0,0,0-1.18-.73,17,17,0,0,0-2.22-.66V30.14h6.51l6,11.07,6.33-11.07H330L321.4,45V59.93h-3.22v-15Z"/>
      <path class="cls-2" d="M68.36,89.66H65.61l-6-7.6V81.75h1.94c2,0,3.38-1,3.38-3s-1.41-3-3.38-3h-2.6V88.5l1.73,0.92v0.25H55.93V89.42l1.65-.94V75.65l-1.65-.94V74.47h6a4.21,4.21,0,0,1,4.42,4.29A4.41,4.41,0,0,1,61.83,83l4.59,5.39,1.94,1.07v0.25Z"/>
      <path class="cls-2" d="M84.52,82.07A7.51,7.51,0,1,1,77,74.13,7.68,7.68,0,0,1,84.52,82.07ZM71,82.07c0,3.51,2.47,6.61,6,6.61s6-3.11,6-6.61-2.45-6.61-6-6.61S71,78.47,71,82.07Z"/>
      <path class="cls-2" d="M101.26,82.07a7.51,7.51,0,1,1-7.5-7.93A7.68,7.68,0,0,1,101.26,82.07Zm-13.52,0c0,3.51,2.47,6.61,6,6.61s6-3.11,6-6.61-2.45-6.61-6-6.61S87.73,78.47,87.73,82.07Z"/>
      <path class="cls-2" d="M113.28,74.47v2.88h-0.21L112,75.68h-5.83v5.79h4.65l0.91-1.05h0.17v3.33h-0.17l-0.91-1h-4.65v5.77l1.63,0.94v0.25h-4.61V89.42l1.65-.94V75.65l-1.65-.94V74.47h10.1Z"/>
      <path class="cls-2" d="M118.37,75.65V88.48L120,89.42v0.25h-4.61V89.42l1.65-.94V75.65l-1.65-.94V74.47H120v0.25Z"/>
      <path class="cls-2" d="M137.07,74.47v0.25l-1.63.94V90h-0.19l-10.1-13V88.48l1.63,0.94v0.25h-4.67V89.42l1.65-.94V75.92l-1.61-1.32V74.45H125l9,11.66V75.65l-1.65-.94V74.47h4.67Z"/>
      <path class="cls-2" d="M153.59,82.58L152,83.63V90h-0.23l-1-1.5a6.41,6.41,0,0,1-4.33,1.5C142,90,139,86.45,139,82.07s3.06-7.93,7.54-7.93a6.77,6.77,0,0,1,3.93,1.18l1.06-1.18h0.23v4.38H151.5a5.43,5.43,0,0,0-5-3.06c-3.59,0-6.11,2.79-6.11,6.61s2.51,6.61,6.11,6.61a5.72,5.72,0,0,0,4.31-1.88l0-3.17-2-1.05V82.34h4.82v0.25Z"/>
      <path class="cls-2" d="M173.49,78.47a5.64,5.64,0,0,0-5.18-3c-3.57,0-6.11,2.79-6.11,6.61s2.54,6.61,6.11,6.61a5.64,5.64,0,0,0,5.18-3h0.25V90h-0.23l-1.1-1.25a7,7,0,0,1-4,1.25c-4.61,0-7.65-3.55-7.65-7.93s3-7.93,7.65-7.93a6.83,6.83,0,0,1,4,1.25l1.08-1.25h0.23v4.34h-0.25Z"/>
      <path class="cls-2" d="M191.41,82.07a7.51,7.51,0,1,1-7.5-7.93A7.68,7.68,0,0,1,191.41,82.07Zm-13.52,0c0,3.51,2.47,6.61,6,6.61s6-3.11,6-6.61-2.45-6.61-6-6.61S177.89,78.47,177.89,82.07Z"/>
      <path class="cls-2" d="M208.29,74.47v0.25l-1.63.94V90h-0.19l-10.1-13V88.48L198,89.42v0.25h-4.67V89.42l1.65-.94V75.92l-1.61-1.32V74.45h2.85l9,11.66V75.65l-1.65-.94V74.47h4.67Z"/>
      <path class="cls-2" d="M218.07,77.35a4.23,4.23,0,0,0-3.49-1.85,2.55,2.55,0,0,0-2.7,2.59c0,1.9,1.35,2.55,4,3.78,1.69,0.78,3,1.85,3,4A4.06,4.06,0,0,1,214.5,90a5.88,5.88,0,0,1-4.1-1.61V86.27h0.23a4.53,4.53,0,0,0,4.06,2.39A2.58,2.58,0,0,0,217.48,86c0-1.83-1-2.41-4.29-3.91a4.08,4.08,0,0,1-2.75-4,4,4,0,0,1,4.12-4,6.12,6.12,0,0,1,3.72,1.18v2h-0.21Z"/>
      <path class="cls-2" d="M235.48,74.72l-1.63.94V83.9c0,3.82-2.51,6.1-5.77,6.1s-5.64-2.28-5.64-6.1V75.65l-1.65-.94V74.47h4.61v0.25l-1.63.94V84c0,2.73,1.8,4.67,4.31,4.67a4.32,4.32,0,0,0,4.44-4.54V75.65l-1.65-.94V74.47h4.61v0.25Z"/>
      <path class="cls-2" d="M247.08,89.66h-9.91V89.42l1.65-.94V75.65l-1.65-.94V74.47h4.61v0.25l-1.63.94v12.8h5.52l1.2-2.57h0.21v3.78Z"/>
      <path class="cls-2" d="M258.36,77h-0.11L257,75.74H253.5V88.32l1.88,1.09v0.25h-5.11V89.42l1.9-1.12V75.74h-3.51L247.44,77h-0.11V74.47h11V77Z"/>
      <path class="cls-2" d="M273.51,89.42v0.25h-4.59V89.42l1.63-.92L269,84.61h-5.75l-1.48,3.87h0.11l1.63,0.94v0.25h-4.65V89.42l1.63-1.23,5.58-14.08h0.25l5.56,14.1Zm-5-6.06-2.43-6.23-2.37,6.23h4.8Z"/>
      <path class="cls-2" d="M290.06,74.47v0.25l-1.63.94V90h-0.19l-10.1-13V88.48l1.63,0.94v0.25H275.1V89.42l1.65-.94V75.92l-1.61-1.32V74.45H278l9,11.66V75.65l-1.65-.94V74.47h4.67Z"/>
      <path class="cls-2" d="M303.2,77h-0.1l-1.23-1.27h-3.53V88.32l1.88,1.09v0.25H295.1V89.42L297,88.3V75.74H293.5L292.27,77h-0.11V74.47h11V77Z"/>
    </g>
  </g>
</svg>
